<?xml version="1.0" encoding="utf-8"?>
<!-- Generator: Adobe Illustrator 19.0.0, SVG Export Plug-In . SVG Version: 6.00 Build 0)  -->
<svg version="1.1" id="Layer_1" xmlns="http://www.w3.org/2000/svg" xmlns:xlink="http://www.w3.org/1999/xlink" x="0px" y="0px"
	 viewBox="-549 71.2 511.8 511.8" style="enable-background:new -549 71.2 511.8 511.8;" xml:space="preserve">
<style type="text/css">
	.st0{fill:#FFFFFF;}
</style>
<g transform="translate(1 1)">
	<g>
		<g>
			<path class="st0" d="M-192.6,127.2c-5.9-5.9-13.3-12.2-22.3-18l12.9-27.2c1.7-4.3,0-9.4-4.3-11.1s-9.4,0-11.1,4.3l-12.3,25.8
				c-16.8-8.1-37.9-13.9-63.7-13.9c-26.1,0-48,5.3-66.3,13.9l-12.3-25.8c-1.7-4.3-6.8-6-11.1-4.3c-4.3,1.7-6,6.8-4.3,11.1l12.9,27.1
				c-36.7,23.4-54.2,60.8-56.4,88.1l-0.9,9.4h274.8l-0.9-9.4C-159.3,179.2-169.5,151.1-192.6,127.2z M-411.9,189.5
				c7.7-36.7,43.5-85.3,119.5-85.3c24.1,0,44.1,5.6,60.3,14.2c0.8,0.8,1.7,1.5,2.8,2c0.5,0.5,1.3,0.7,2.1,0.8
				c30.6,18.3,46.7,47.5,51.7,68.3L-411.9,189.5L-411.9,189.5z"/>
			<path class="st0" d="M-490.4,223.6c-23.9,0-42.7,18.8-42.7,42.7v119.5c0,23.9,18.8,42.7,42.7,42.7c23.9,0,42.7-18.8,42.7-42.7
				V266.3C-447.7,242.4-466.5,223.6-490.4,223.6z M-464.8,385.7c0,14.5-11.1,25.6-25.6,25.6s-25.6-11.1-25.6-25.6V266.3
				c0-14.5,11.1-25.6,25.6-25.6s25.6,11.1,25.6,25.6V385.7z"/>
			<path class="st0" d="M-97.8,223.6c-23.9,0-42.7,18.8-42.7,42.7v119.5c0,23.9,18.8,42.7,42.7,42.7s42.7-18.8,42.7-42.7V266.3
				C-55.2,242.4-73.9,223.6-97.8,223.6z M-72.2,385.7c0,14.5-11.1,25.6-25.6,25.6c-14.5,0-25.6-11.1-25.6-25.6V266.3
				c0-14.5,11.1-25.6,25.6-25.6c14.5,0,25.6,11.1,25.6,25.6V385.7z"/>
			<path class="st0" d="M-430.6,471.1h34.1v76.8c0,18.8,15.4,34.1,34.1,34.1s34.1-15.4,34.1-34.1v-76.8h68.3v76.8
				c0,18.8,15.4,34.1,34.1,34.1s34.1-15.4,34.1-34.1v-76.8h34.1V223.6h-273.1V471.1z M-413.6,240.7h238.9V454h-34.1v93.9
				c0,9.4-7.7,17.1-17.1,17.1s-17.1-7.7-17.1-17.1V454h-102.4v93.9c0,9.4-7.7,17.1-17.1,17.1s-17.1-7.7-17.1-17.1V454h-34.1
				L-413.6,240.7L-413.6,240.7z"/>
			<path class="st0" d="M-336.8,138.3c-9.4,0-17.1,7.7-17.1,17.1s7.7,17.1,17.1,17.1c9.4,0,17.1-7.7,17.1-17.1
				C-319.7,145.9-327.4,138.3-336.8,138.3z"/>
			<path class="st0" d="M-251.4,138.3c-9.4,0-17.1,7.7-17.1,17.1s7.7,17.1,17.1,17.1s17.1-7.7,17.1-17.1
				C-234.4,145.9-242,138.3-251.4,138.3z"/>
		</g>
	</g>
</g>
</svg>
