<?xml version="1.0" encoding="utf-8"?>
<!-- Generator: Adobe Illustrator 19.0.0, SVG Export Plug-In . SVG Version: 6.00 Build 0)  -->
<svg version="1.1" id="Capa_1" xmlns="http://www.w3.org/2000/svg" xmlns:xlink="http://www.w3.org/1999/xlink" x="0px" y="0px"
	 viewBox="-549 71 512 512" style="enable-background:new -549 71 512 512;" xml:space="preserve">
<style type="text/css">
	.st0{fill:#FFFFFF;}
</style>
<g>
	<g>
		<g>
			<path class="st0" d="M-78.6,156l-246.5-82.7c-23.3-7.8-48.7,4.8-56.5,28.1l-3.3,9.7c-1.6,4.8,1,10,5.8,11.6
				c4.8,1.6,10-1,11.6-5.8l3.3-9.7c4.6-13.8,19.6-21.2,33.3-16.6l246.5,82.7c13.8,4.6,21.2,19.6,16.6,33.3l-114.7,342
				c-1.6,4.8,1,10,5.8,11.6c1,0.3,1.9,0.5,2.9,0.5c3.8,0,7.4-2.4,8.7-6.2l114.7-342C-42.6,189.2-55.2,163.8-78.6,156z"/>
		</g>
	</g>
	<g>
		<g>
			<path class="st0" d="M-234.4,133.1h-260c-24.6,0-44.6,20-44.6,44.6v360.7c0,24.6,20,44.6,44.6,44.6h260c24.6,0,44.6-20,44.6-44.6
				V177.7C-189.7,153.1-209.8,133.1-234.4,133.1z M-208,538.4c0,14.5-11.8,26.3-26.3,26.3h-260c-14.5,0-26.3-11.8-26.3-26.3V177.7
				c0-14.5,11.8-26.3,26.3-26.3h260c14.5,0,26.3,11.8,26.3,26.3L-208,538.4L-208,538.4z"/>
		</g>
	</g>
	<g>
		<g>
			<path class="st0" d="M-272.2,434.6h-184.2c-5.1,0-9.1,4.1-9.1,9.1s4.1,9.1,9.1,9.1h184.2c5.1,0,9.1-4.1,9.1-9.1
				C-263.1,438.7-267.2,434.6-272.2,434.6z"/>
		</g>
	</g>
	<g>
		<g>
			<path class="st0" d="M-272.2,498.3h-184.2c-5.1,0-9.1,4.1-9.1,9.1c0,5.1,4.1,9.1,9.1,9.1h184.2c5.1,0,9.1-4.1,9.1-9.1
				C-263.1,502.4-267.2,498.3-272.2,498.3z"/>
		</g>
	</g>
	<g>
		<g>
			<path class="st0" d="M-263.8,251.2c-1.1-3.3-3.9-5.7-7.4-6.2l-58.7-8.5l-26.3-53.2c-1.5-3.1-4.7-5.1-8.2-5.1
				c-3.5,0-6.7,2-8.2,5.1l-26.3,53.2l-58.7,8.5c-3.4,0.5-6.3,2.9-7.4,6.2c-1.1,3.3-0.2,6.9,2.3,9.4l42.5,41.4l-10,58.5
				c-0.6,3.4,0.8,6.9,3.6,8.9c1.6,1.2,3.5,1.7,5.4,1.7c1.5,0,2.9-0.3,4.3-1l52.5-27.6l52.5,27.6c3.1,1.6,6.8,1.3,9.6-0.7
				c2.8-2,4.2-5.5,3.6-8.9l-10-58.5l42.5-41.4C-263.6,258.1-262.7,254.5-263.8,251.2z M-324.8,292.2c-2.2,2.1-3.1,5.1-2.6,8.1
				l7.7,44.9l-40.4-21.2c-2.7-1.4-5.9-1.4-8.5,0l-40.4,21.2l7.7-44.9c0.5-3-0.5-6-2.6-8.1l-32.7-31.8l45.1-6.6c3-0.4,5.6-2.3,6.9-5
				l20.2-40.9l20.2,40.9c1.3,2.7,3.9,4.6,6.9,5l45.1,6.6L-324.8,292.2z"/>
		</g>
	</g>
</g>
</svg>
