<?xml version="1.0" encoding="utf-8"?>
<!-- Generator: Adobe Illustrator 19.0.0, SVG Export Plug-In . SVG Version: 6.00 Build 0)  -->
<svg version="1.1" id="Layer_1" xmlns="http://www.w3.org/2000/svg" xmlns:xlink="http://www.w3.org/1999/xlink" x="0px" y="0px"
	 viewBox="-549 71 512 512" style="enable-background:new -549 71 512 512;" xml:space="preserve">
<style type="text/css">
	.st0{fill:#FFFFFF;}
</style>
<g>
	<path class="st0" d="M-448.3,396h21.1c11.8,0,21.5,9.6,21.5,21.5c0,5.5,4.5,10,10,10c5.5,0,10-4.5,10-10
		c0-22.9-18.6-41.5-41.5-41.5h-21.1c-22.9,0-41.5,18.6-41.5,41.5v76.5c0,22.9,18.6,41.5,41.5,41.5h21.1c22.9,0,41.5-18.6,41.5-41.5
		c0-5.5-4.5-10-10-10c-5.5,0-10,4.5-10,10c0,11.8-9.6,21.5-21.5,21.5h-21.1c-11.8,0-21.5-9.6-21.5-21.5v-76.5
		C-469.8,405.6-460.1,396-448.3,396z"/>
	<path class="st0" d="M-224.1,378c-4.4-1.1-9,0.8-11.2,4.8l-52,92.8l-52-92.8c-2.2-4-6.9-5.9-11.3-4.8c-4.4,1.1-7.5,5.1-7.5,9.7
		v136.1c0,5.5,4.5,10,10,10s10-4.5,10-10v-97.8l42,74.9c1.8,3.2,5.1,5.1,8.7,5.1s7-2,8.7-5.1l42-74.9v97.8c0,5.5,4.5,10,10,10
		s10-4.5,10-10V387.6C-216.6,383.1-219.7,379.1-224.1,378z"/>
	<path class="st0" d="M-143.3,445.7c-14.9,0-27.1-12.1-27.1-27.1c0-14.9,12.1-27.1,27.1-27.1c8.7,0,17,4.2,22,11.4
		c3.2,4.5,9.5,5.5,13.9,2.3c4.5-3.2,5.5-9.5,2.3-13.9c-8.8-12.4-23.1-19.7-38.3-19.7c-25.9,0-47.1,21.1-47.1,47.1
		c0,26,21.1,47.1,47.1,47.1c14.9,0,27.1,12.1,27.1,27.1c0,14.9-12.1,27.1-27.1,27.1c-10.1,0-19.3-5.6-24-14.5
		c-2.6-4.9-8.6-6.8-13.5-4.2c-4.9,2.6-6.8,8.6-4.2,13.5c8.2,15.5,24.1,25.2,41.7,25.2c25.9,0,47.1-21.1,47.1-47.1
		C-96.2,466.8-117.3,445.7-143.3,445.7z"/>
	<path class="st0" d="M-47,319.1h-33v-29.7c0-5.5-4.5-10-10-10h-22.7c-4.1-14.9-10-29.2-17.7-42.7l16.1-16.1
		c1.9-1.9,2.9-4.4,2.9-7.1c0-2.7-1.1-5.2-2.9-7.1l-56.1-56.1c-3.9-3.9-10.2-3.9-14.1,0l-16.1,16.1c-13.5-7.7-27.8-13.6-42.7-17.7
		v-22.7c0-5.5-4.5-10-10-10h-79.3c-5.5,0-10,4.5-10,10v22.7c-14.9,4.1-29.2,10-42.7,17.7l-16.1-16.1c-3.9-3.9-10.2-3.9-14.1,0
		l-56.1,56.1c-1.9,1.9-2.9,4.4-2.9,7.1s1.1,5.2,2.9,7.1l16.1,16.1c-7.7,13.5-13.6,27.8-17.7,42.7H-496c-5.5,0-10,4.5-10,10v29.7h-33
		c-5.5,0-10,4.5-10,10c0,5.5,4.5,10,10,10h176.3h29.7h80h41.7H-47c5.5,0,10-4.5,10-10C-37,323.6-41.5,319.1-47,319.1z M-253,319.1
		C-253,319.1-253.1,319.1-253,319.1l-39.9,0c0,0-0.1,0-0.1,0s-0.1,0-0.1,0h-39.8c0,0-0.1,0-0.1,0h-43.1c5-41.5,40.3-73.7,83.1-73.7
		s78.2,32.3,83.1,73.7H-253z M-100,319.1h-89.7c-5-52.5-49.4-93.7-103.3-93.7s-98.2,41.2-103.3,93.7H-486v-19.7h20.5
		c4.7,0,8.7-3.2,9.8-7.8c4.1-18.1,11.3-35.3,21.2-51.1c2.5-3.9,1.9-9.1-1.4-12.4l-14.5-14.5l42-41.9l14.5,14.5
		c3.3,3.3,8.4,3.9,12.4,1.4c15.8-9.9,33-17.1,51.1-21.2c4.5-1,7.8-5.1,7.8-9.7v-20.5h59.3v20.5c0,4.7,3.2,8.7,7.8,9.8
		c18.1,4.2,35.3,11.3,51.1,21.2c3.9,2.5,9.1,1.9,12.4-1.4l14.5-14.5l42,42l-14.5,14.5c-3.3,3.3-3.9,8.4-1.4,12.4
		c9.9,15.8,17,33,21.2,51.1c1,4.5,5.1,7.8,9.7,7.8h20.5V319.1z"/>
</g>
</svg>
