<?xml version="1.0" encoding="utf-8"?>
<!-- Generator: Adobe Illustrator 19.0.0, SVG Export Plug-In . SVG Version: 6.00 Build 0)  -->
<svg version="1.1" id="Capa_1" xmlns="http://www.w3.org/2000/svg" xmlns:xlink="http://www.w3.org/1999/xlink" x="0px" y="0px"
	 viewBox="-649 171.7 311.3 311.3" style="enable-background:new -649 171.7 311.3 311.3;" xml:space="preserve">
<style type="text/css">
	.st0{fill:#FFFFFF;}
</style>
<g>
	<path class="st0" d="M-497.6,254.1c0.5,0,1,0,1.5,0c0,0,0,0,0,0c17.3,0,36-9.7,47.8-24.8c12.1-15.5,17.6-34.2,15.1-51.2
		c-0.6-3.9-4-6.7-7.9-6.4c-17,1.2-36.3,11.6-48,25.8c-12.7,15.5-18.5,34.3-15.6,50.4C-504.1,251.4-501.2,254-497.6,254.1z
		 M-477.6,207c7.2-8.8,18.9-16.1,29.9-19c-0.5,14.9-8.6,27.1-12.5,32.1c-7.6,9.7-19.2,16.7-30.3,18.6
		C-490.3,223.8-480.9,211-477.6,207z"/>
	<path class="st0" d="M-366.4,398.1c-0.8-1.9-2.3-3.4-4.3-4.1c-30.9-11.6-40.6-45.1-31.8-69.5c4.3-12.1,12.8-21.9,24.6-28.4
		c1.9-1.1,3.3-2.9,3.7-5.1c0.4-2.2-0.1-4.4-1.5-6.1c-15.7-19.5-37.9-31.2-59.5-31.2c-15.1,0-25.4,3.9-34.4,7.3
		c-6.7,2.5-12.4,4.7-19,4.7c-7.3,0-13.9-2.4-21.6-5.1c-9-3.2-19.2-6.9-32-6.9c-24.6,0-49.5,14.9-65,38.8c-5.7,8.9-9.8,19.9-12,32.7
		c-6.2,36.4,4.3,79.8,28.1,116.1c13.5,20.5,30.5,41.5,54.3,41.7l0.5,0c9.9,0,16.6-3,23-5.9c6.8-3,13.3-5.9,24.9-6l0.4,0
		c11.4,0,17.7,2.9,24.3,5.9c6.3,2.9,12.9,5.9,22.8,5.9l0.5,0c23.3-0.2,41-22.3,55.2-43.9c8.7-13.4,12.1-20.2,18.7-35
		C-365.6,402.1-365.6,400-366.4,398.1z M-397.7,430.8c-11.3,17.2-26.4,37-42.8,37.1l-0.3,0c-6.6,0-11-2-16.5-4.5
		c-7-3.2-15.8-7.3-30.5-7.3l-0.5,0c-14.8,0.1-23.8,4.1-31,7.3c-5.7,2.5-10.2,4.6-16.9,4.6l-0.3,0c-16.9-0.1-31.3-18.8-41.9-35
		c-21.8-33.2-31.5-72.6-25.9-105.3c1.9-10.8,5.2-19.9,9.8-27.1c12.8-19.7,32.9-32,52.4-32c10.1,0,18.3,2.9,26.9,6
		c8.3,3,16.8,6,26.7,6c9.3,0,17-2.9,24.3-5.7c8.2-3.1,16.7-6.3,29.1-6.3c14.7,0,30,7.1,42.2,19.3c-11,8-19.1,18.8-23.7,31.5
		c-11.9,33,3,69.6,33.3,85.3C-387.8,414.5-391,420.5-397.7,430.8z"/>
</g>
</svg>
