<?xml version="1.0" encoding="utf-8"?>
<!-- Generator: Adobe Illustrator 19.0.0, SVG Export Plug-In . SVG Version: 6.00 Build 0)  -->
<svg version="1.1" id="Capa_1" xmlns="http://www.w3.org/2000/svg" xmlns:xlink="http://www.w3.org/1999/xlink" x="0px" y="0px"
	 viewBox="-549 71 512 512" style="enable-background:new -549 71 512 512;" xml:space="preserve">
<style type="text/css">
	.st0{fill:#FFFFFF;}
</style>
<g>
	<path class="st0" d="M-88.1,312.8c0-25.7-19.4-47-44.3-50V133.8c0-7.9-5.1-14.6-12.8-16.7c-7.6-2.1-15.4,1.2-19.4,8
		c-27.3,46.9-70.2,79-127.7,95.3c-43.4,12.4-79.3,10.6-79.6,10.5c-0.5,0-1,0-1.6,0h-91.9c-46.1,0-83.7,37.5-83.7,83.7
		c0,43.5,33.3,79.3,75.7,83.3l27.7,113.9c3.7,15.1,17.1,25.6,32.6,25.6h19.2c10.4,0,20-4.7,26.4-12.8s8.7-18.6,6.2-28.7l-23.8-97.7
		h11.4c0.5,0.1,1,0.1,1.6,0c0.4,0,36.2-1.8,79.6,10.5c57.4,16.3,100.4,48.4,127.7,95.3c3.2,5.5,8.8,8.6,14.8,8.6
		c1.5,0,3.1-0.2,4.6-0.6c7.6-2.1,12.8-8.8,12.8-16.7V366.5c24.9-3,44.3-24.3,44.3-50L-88.1,312.8L-88.1,312.8z M-383.7,487.8l3.2,13
		c1,4.1,0.1,8.3-2.5,11.6c-2.6,3.3-6.5,5.2-10.6,5.2H-413c-6.3,0-11.7-4.3-13.2-10.3l-26.5-108.8h47.1l7.1,29h-4.8
		c-5.5,0-10,4.5-10,10s4.5,10,10,10h9.6l5,20.4h-3.1c-5.5,0-10,4.5-10,10s4.5,10,10,10H-383.7z M-382.5,335.9h-62.1
		c-5.5,0-10,4.5-10,10s4.5,10,10,10h62.1v22.4h-14.6c-0.2,0-0.4,0-0.6,0h-67.7c-0.1,0-0.2,0-0.3,0c-35-0.2-63.4-28.7-63.4-63.7
		c0-35.1,28.6-63.7,63.7-63.7h82.9L-382.5,335.9L-382.5,335.9z M-152.4,272.5v84.4v129c-30-46.6-76.5-79.8-135-96.3
		c-32.4-9.1-60.5-11-75-11.2v-32.4V251c14.5-0.2,42.6-2.1,75-11.2c58.6-16.5,105.1-49.7,135-96.3V272.5z M-108.1,316.5
		c0,14.7-10.5,26.9-24.3,29.7v-63.2c13.9,2.8,24.3,15.1,24.3,29.7V316.5z"/>
	<path class="st0" d="M-85.1,256.3c2.4,0,4.8-0.9,6.7-2.6l28.8-26.3c4.1-3.7,4.4-10,0.7-14.1c-3.7-4.1-10-4.4-14.1-0.7l-28.8,26.3
		c-4.1,3.7-4.4,10-0.7,14.1C-90.5,255.2-87.8,256.3-85.1,256.3z"/>
	<path class="st0" d="M-78.4,375.6c-4.1-3.7-10.4-3.4-14.1,0.7c-3.7,4.1-3.4,10.4,0.7,14.1l28.8,26.3c1.9,1.7,4.3,2.6,6.7,2.6
		c2.7,0,5.4-1.1,7.4-3.3c3.7-4.1,3.4-10.4-0.7-14.1L-78.4,375.6z"/>
	<path class="st0" d="M-47,304.7h-22.1c-5.5,0-10,4.5-10,10s4.5,10,10,10H-47c5.5,0,10-4.5,10-10S-41.5,304.7-47,304.7z"/>
</g>
</svg>
