<?xml version="1.0" encoding="utf-8"?>
<!-- Generator: Adobe Illustrator 19.0.0, SVG Export Plug-In . SVG Version: 6.00 Build 0)  -->
<svg version="1.1" id="Capa_1" xmlns="http://www.w3.org/2000/svg" xmlns:xlink="http://www.w3.org/1999/xlink" x="0px" y="0px"
	 viewBox="-778 300 54 54" style="enable-background:new -778 300 54 54;" xml:space="preserve">
<style type="text/css">
	.st0{fill:#FFFFFF;}
</style>
<g>
	<g>
		<path class="st0" d="M-751,306.2c0.6,0,1-0.5,1-1V301c0-0.6-0.5-1-1-1s-1,0.5-1,1v4.2C-752,305.8-751.5,306.2-751,306.2z"/>
		<path class="st0" d="M-726,324.9h-4.2c-0.6,0-1,0.5-1,1c0,0.6,0.5,1,1,1h4.2c0.6,0,1-0.5,1-1C-725,325.4-725.5,324.9-726,324.9z"
			/>
		<path class="st0" d="M-771.7,324.9h-4.2c-0.6,0-1,0.5-1,1c0,0.6,0.5,1,1,1h4.2c0.6,0,1-0.5,1-1
			C-770.7,325.4-771.2,324.9-771.7,324.9z"/>
		<path class="st0" d="M-734.1,307.6l-2.9,2.9c-0.4,0.4-0.4,1.1,0,1.5c0.2,0.2,0.5,0.3,0.7,0.3c0.3,0,0.5-0.1,0.7-0.3l2.9-2.9
			c0.4-0.4,0.4-1.1,0-1.5C-733,307.2-733.7,307.2-734.1,307.6z"/>
		<path class="st0" d="M-766.4,312c0.2,0.2,0.5,0.3,0.7,0.3s0.5-0.1,0.7-0.3c0.4-0.4,0.4-1.1,0-1.5l-2.9-2.9c-0.4-0.4-1.1-0.4-1.5,0
			c-0.4,0.4-0.4,1.1,0,1.5L-766.4,312z"/>
	</g>
	<path class="st0" d="M-734.7,325.5c0-9-7.3-16.3-16.3-16.3s-16.3,7.3-16.3,16.3c0,5.4,2.7,10.4,7.1,13.5c0,0,0,0,0.1,0.1
		c0,0,0.1,0.1,0.1,0.1c1.6,1.2,2.4,2.4,2.7,4.4v4.3c0,2.3,1.6,4.3,3.7,4.8c0.1,0.7,0.7,1.3,1.5,1.3h2.1c0.8,0,1.4-0.6,1.5-1.3
		c2.1-0.5,3.7-2.5,3.7-4.8v-4.3c0.3-2,1.1-3.3,2.8-4.5c0,0,0,0,0,0C-737.3,336-734.7,330.9-734.7,325.5z M-746.4,347.9
		c0,1.8-1.4,3.2-3.1,3.2h-2.9c-1.2,0-2.2-0.7-2.8-1.7h6.3c0.5,0,0.8-0.4,0.8-0.8s-0.4-0.8-0.8-0.8h-6.7v-0.8h6.7
		c0.5,0,0.8-0.4,0.8-0.8s-0.4-0.8-0.8-0.8h-6.7v-0.8h9.2V347.9z M-752.2,342.7l-3.8-13.3c0.3,0.2,0.6,0.4,1.1,0.4
		c0.9,0,1.4-0.7,1.7-1.1c0.1-0.1,0.2-0.3,0.3-0.3c0,0,0,0,0,0c0,0,0,0,0,0c0.1,0,0.2,0.2,0.3,0.3c0.3,0.4,0.7,1.1,1.7,1.1
		c0.9,0,1.4-0.7,1.7-1.1c0.1-0.1,0.2-0.3,0.3-0.3c0,0,0,0,0,0c0,0,0,0,0,0c0.1,0,0.2,0.2,0.3,0.3c0.3,0.4,0.7,1.1,1.7,1.1
		c0.5,0,0.9-0.2,1.2-0.5l-3.8,13.4L-752.2,342.7L-752.2,342.7z M-742.9,337.7C-742.9,337.7-742.9,337.7-742.9,337.7
		c-1.9,1.4-2.9,2.9-3.4,5h-1.7l4.5-15.8c0.1-0.4-0.1-0.9-0.6-1c-0.4-0.1-0.9,0.1-1,0.6l-0.1,0.3c-0.9,0-1.4,0.7-1.7,1.1
		c-0.1,0.1-0.2,0.3-0.3,0.3c0,0,0,0,0,0c0,0,0,0,0,0c-0.1,0-0.2-0.2-0.3-0.3c-0.3-0.4-0.7-1.1-1.7-1.1c-0.9,0-1.4,0.7-1.7,1.1
		c-0.1,0.1-0.2,0.3-0.3,0.3c0,0,0,0,0,0c0,0,0,0,0,0c-0.1,0-0.2-0.2-0.3-0.3c-0.3-0.4-0.7-1.1-1.7-1.1c-0.9,0-1.4,0.7-1.7,1.1
		c-0.1,0.1-0.2,0.3-0.3,0.3c0,0,0,0,0,0c0,0,0,0,0,0c-0.1,0-0.2-0.2-0.3-0.3c-0.3-0.4-0.7-1-1.6-1.1l-0.1-0.3
		c-0.1-0.4-0.6-0.7-1-0.6c-0.4,0.1-0.7,0.6-0.6,1l4.5,15.8h-1.7c-0.5-2.1-1.4-3.5-3.2-4.9c0,0-0.1,0-0.1-0.1c0,0-0.1-0.1-0.1-0.1
		c-4.1-2.7-6.5-7.3-6.5-12.2c0-8.1,6.6-14.6,14.6-14.6s14.6,6.6,14.6,14.6C-736.3,330.4-738.8,335-742.9,337.7z"/>
</g>
</svg>
