<?xml version="1.0" encoding="utf-8"?>
<!-- Generator: Adobe Illustrator 19.0.0, SVG Export Plug-In . SVG Version: 6.00 Build 0)  -->
<svg version="1.1" id="Layer_1" xmlns="http://www.w3.org/2000/svg" xmlns:xlink="http://www.w3.org/1999/xlink" x="0px" y="0px"
	 viewBox="-549 71 512 512" style="enable-background:new -549 71 512 512;" xml:space="preserve">
<style type="text/css">
	.st0{fill:#FFFFFF;}
</style>
<g>
	<g>
		<g>
			<g>
				<g>
					<g>
						<g>
							<circle class="st0" cx="-213.5" cy="115.3" r="8"/>
							<circle class="st0" cx="-175.2" cy="115.3" r="8"/>
							<circle class="st0" cx="-136.9" cy="115.3" r="8"/>
						</g>
					</g>
				</g>
			</g>
		</g>
	</g>
	<path class="st0" d="M-446.3,310.3l50.4-32.9c0.8-0.6,1.9-0.8,2.9-0.8c4,0,9.2,4.2,9.2,9.6c0,2.3-1.1,4.4-2.9,5.6l-40.2,26.4
		l40.2,26.4c1.7,1,2.9,3.1,2.9,5.6c0,5.4-5.2,9.4-9.2,9.4c-1,0-2.1-0.2-2.9-0.8l-50.4-32.9c-2.9-1.9-4.2-5.2-4.2-7.7
		S-449.1,312.2-446.3,310.3z"/>
	<path class="st0" d="M-279.3,241c0,1.1-0.2,2.1-0.8,3.1l-70.3,140.2c-1.1,2.3-3.6,3.6-6.3,3.6c-4.4,0-7.5-3.6-7.5-7.1
		c0-1,0.2-1.9,0.6-2.9l70.5-140.8c1.1-2.5,3.3-3.4,5.7-3.4C-283.5,233.7-279.3,236.6-279.3,241z"/>
	<path class="st0" d="M-193.4,325.8l-50.4,32.9c-0.8,0.6-1.7,0.8-2.7,0.8c-4.2,0-9.2-4-9.2-9.4c0-2.5,1.1-4.6,2.7-5.6l40.4-26.4
		l-40.4-26.4c-1.5-1.1-2.7-3.3-2.7-5.6c0-5.4,5-9.6,9.2-9.6c1,0,1.9,0.2,2.7,0.8l50.4,32.9c2.9,1.9,4.2,5.4,4.2,7.9
		S-190.4,323.9-193.4,325.8z"/>
	<path class="st0" d="M-262.6,517.9h-262.2c-5.1,0-9.2-4.1-9.2-9.2V156.4h428.8v203.3c0,4.1,3.4,7.5,7.5,7.5s7.5-3.4,7.5-7.5V98.4
		c0-13.3-10.9-24.2-24.2-24.2h-410.4c-13.3,0-24.2,10.8-24.2,24.2v410.4c0,13.3,10.9,24.2,24.2,24.2h262.2c4.1,0,7.5-3.4,7.5-7.5
		C-255.1,521.3-258.5,517.9-262.6,517.9z M-524.8,89.2h410.4c5.1,0,9.2,4.1,9.2,9.2v43H-534v-43C-534,93.3-529.9,89.2-524.8,89.2z"
		/>
	<path class="st0" d="M-150.8,412.8c-29.3,0-53.2,23.9-53.2,53.2s23.9,53.2,53.2,53.2s53.2-23.9,53.2-53.2S-121.5,412.8-150.8,412.8
		z M-150.8,504.2c-21.1,0-38.2-17.1-38.2-38.2s17.1-38.2,38.2-38.2s38.2,17.1,38.2,38.2S-129.8,504.2-150.8,504.2z"/>
	<path class="st0" d="M-54.8,442.3h-6.9c-1.2,0-2.3-0.8-2.7-1.9c-1.8-5.9-4.2-11.7-7.2-17.2c-0.6-1.1-0.4-2.4,0.5-3.3l4.9-4.9
		c7-7,7-18.3,0-25.2l-8.3-8.3c-7-7-18.3-7-25.2,0l-4.9,4.9c-0.9,0.9-2.3,1.1-3.3,0.5c-5.5-3-11.2-5.4-17.2-7.2
		c-1.1-0.3-1.9-1.5-1.9-2.7V370c0-9.8-8-17.8-17.8-17.8h-11.8c-9.8,0-17.8,8-17.8,17.8v6.4c0,1.3-0.8,2.4-2,2.7
		c-6.1,1.7-12.1,4.1-17.7,7.1c-1.1,0.6-2.4,0.3-3.3-0.5l-4.4-4.4c-3.4-3.4-7.9-5.2-12.6-5.2c-4.8,0-9.2,1.9-12.6,5.2l-8.3,8.3
		c-3.4,3.4-5.2,7.9-5.2,12.6s1.9,9.2,5.2,12.6l4,4c0.9,0.9,1.1,2.3,0.5,3.3c-3.2,5.7-5.8,11.8-7.7,18.1c-0.3,1.1-1.5,2-2.7,2h-5.3
		c-9.8,0-17.8,8-17.8,17.8v11.8c0,9.8,8,17.8,17.8,17.8h4.9c1.3,0,2.4,0.8,2.7,2c1.8,6.5,4.4,12.8,7.7,18.7c0.6,1,0.4,2.4-0.5,3.3
		l-3.4,3.4c-7,7-7,18.3,0,25.2l8.3,8.3c7,7,18.3,7,25.2,0l3.4-3.4c0.9-0.9,2.2-1.1,3.3-0.5c5.9,3.2,12.2,5.8,18.7,7.7
		c1.2,0.3,2,1.4,2,2.7v4.9c0,9.8,8,17.8,17.8,17.8h11.8c9.8,0,17.8-8,17.8-17.8v-5.3c0-1.3,0.8-2.4,2-2.8c6.3-1.9,12.4-4.5,18.1-7.7
		c1.1-0.6,2.4-0.4,3.3,0.5l4,4c7,7,18.3,7,25.2,0l8.3-8.3c7-7,7-18.3,0-25.2l-4.4-4.4c-0.9-0.9-1.1-2.2-0.5-3.3
		c3-5.6,5.4-11.6,7.1-17.7c0.3-1.2,1.4-2,2.7-2h6.4c9.8,0,17.8-8,17.8-17.8v-11.8C-37,450.3-45,442.3-54.8,442.3z M-52,471.9
		c0,1.6-1.3,2.8-2.8,2.8h-6.4c-7.9,0-15,5.3-17.1,12.9c-1.5,5.1-3.5,10.1-5.9,14.8c-3.7,6.9-2.4,15.3,3.2,20.9l4.4,4.4
		c1.1,1.1,1.1,2.9,0,4l-8.3,8.3c-1.1,1.1-2.9,1.1-4,0l-4-4c-5.6-5.6-14.4-6.8-21.3-3c-4.8,2.7-9.9,4.9-15.1,6.5
		c-7.4,2.3-12.6,9.3-12.6,17.1v5.3c0,1.6-1.3,2.8-2.8,2.8h-11.8c-1.6,0-2.8-1.3-2.8-2.8v-4.9c0-7.9-5.3-15-12.9-17.1
		c-5.4-1.5-10.7-3.7-15.6-6.4c-2.6-1.4-5.5-2.1-8.4-2.1c-4.6,0-9.2,1.8-12.7,5.2l-3.4,3.4c-1.1,1.1-2.9,1.1-4,0l-8.3-8.3
		c-1.1-1.1-1.1-2.9,0-4l3.4-3.4c5.6-5.6,6.8-14.2,3.1-21.1c-2.7-4.9-4.9-10.2-6.4-15.6c-2.1-7.6-9.2-12.9-17.1-12.9h-4.9
		c-1.6,0-2.8-1.3-2.8-2.8v-11.8c0-1.6,1.3-2.8,2.8-2.8h5.3c7.8,0,14.9-5.2,17.1-12.6c1.6-5.2,3.8-10.3,6.5-15.1
		c3.9-6.9,2.7-15.7-3-21.3l-4-4c-0.7-0.7-0.8-1.6-0.8-2c0-0.4,0.1-1.3,0.8-2l8.3-8.3c0.7-0.7,1.6-0.8,2-0.8c0.4,0,1.3,0.1,2,0.8
		l4.4,4.4c5.6,5.6,14,6.9,20.9,3.2c4.7-2.5,9.7-4.5,14.8-5.9c7.6-2.2,12.9-9.2,12.9-17.1V370c0-1.6,1.3-2.8,2.8-2.8h11.8
		c1.6,0,2.8,1.3,2.8,2.8v6.9c0,7.9,5.1,14.8,12.6,17c5,1.5,9.8,3.5,14.3,6c6.9,3.8,15.6,2.5,21.1-3.1l4.9-4.9c1.1-1.1,2.9-1.1,4,0
		l8.3,8.3c1.1,1.1,1.1,2.9,0,4l-4.9,4.9c-5.6,5.6-6.8,14.2-3.1,21.1c2.5,4.5,4.5,9.4,6,14.3c2.3,7.5,9.1,12.6,17,12.6h6.9
		c1.6,0,2.8,1.3,2.8,2.8L-52,471.9L-52,471.9z"/>
</g>
</svg>
