<?xml version="1.0" encoding="utf-8"?>
<!-- Generator: Adobe Illustrator 19.0.0, SVG Export Plug-In . SVG Version: 6.00 Build 0)  -->
<svg version="1.1" id="Layer_1" xmlns="http://www.w3.org/2000/svg" xmlns:xlink="http://www.w3.org/1999/xlink" x="0px" y="0px"
	 viewBox="-549 71 512 512" style="enable-background:new -549 71 512 512;" xml:space="preserve">
<style type="text/css">
	.st0{fill:#FFFFFF;}
</style>
<g>
	<path class="st0" d="M-44.5,71h-496.9c-4.2,0-7.6,3.4-7.6,7.6c0,0,0,0,0,0V499c0,4.2,3.4,7.6,7.6,7.6h134.3v36.7
		c0,21.9,17.8,39.6,39.7,39.7h148.9c21.9,0,39.6-17.8,39.7-39.7v-36.7h134.3c4.2,0,7.6-3.4,7.6-7.6V78.6C-37,74.4-40.4,71-44.5,71
		C-44.5,71-44.5,71-44.5,71L-44.5,71z M-533.9,86.1h481.8v46h-481.8V86.1z M-392,499.1c0,0,0-0.1,0-0.1s0-0.1,0-0.1V309.1h198v189.8
		v0.1c0,0,0,0.1,0,0.1v13.4h-198V499.1z M-391.3,294c2.7-11,12.5-18.8,23.9-18.8h148.9c11.4,0,21.2,7.8,23.9,18.8H-391.3z
		 M-218.5,567.9h-148.9c-13.6,0-24.5-11-24.6-24.6v-15.6h198v15.6C-194,556.9-205,567.9-218.5,567.9L-218.5,567.9z M-178.9,491.5
		V299.7c0-21.9-17.8-39.6-39.7-39.7h-148.9c-21.9,0-39.6,17.8-39.7,39.7v191.7h-126.8V147.2h481.8v344.2H-178.9z"/>
	<path class="st0" d="M-211.1,96c-7.2,0-13.1,5.8-13.1,13.1c0,7.2,5.8,13.1,13.1,13.1c7.2,0,13.1-5.8,13.1-13.1
		C-198,101.9-203.9,96-211.1,96L-211.1,96z"/>
	<path class="st0" d="M-159.9,96c-7.2,0-13.1,5.8-13.1,13.1c0,7.2,5.8,13.1,13.1,13.1c7.2,0,13.1-5.8,13.1-13.1c0,0,0,0,0,0
		C-146.9,101.9-152.7,96.1-159.9,96z"/>
	<path class="st0" d="M-108.8,96c-7.2,0-13.1,5.8-13.1,13.1c0,7.2,5.8,13.1,13.1,13.1c7.2,0,13.1-5.8,13.1-13.1c0,0,0,0,0,0
		C-95.7,101.9-101.6,96.1-108.8,96C-108.8,96-108.8,96-108.8,96z"/>
	<path class="st0" d="M-293,534.4c-7.4,0-13.4,6-13.4,13.4s6,13.4,13.4,13.4s13.4-6,13.4-13.4l0,0
		C-279.6,540.4-285.6,534.4-293,534.4z"/>
	<path class="st0" d="M-227.1,350c-0.1-0.2-0.1-0.5-0.2-0.7c-0.1-0.3-0.3-0.5-0.4-0.8c-0.1-0.2-0.2-0.3-0.3-0.5
		c-0.6-0.8-1.3-1.5-2.1-2.1c-0.2-0.1-0.3-0.2-0.5-0.3c-0.5-0.3-1-0.5-1.5-0.6c-0.2-0.1-0.4-0.2-0.7-0.2c-0.5-0.1-1-0.2-1.5-0.2
		h-35.8c-4.2,0-7.6,3.4-7.6,7.6c0,4.2,3.4,7.6,7.6,7.6h17.6l-91.5,91.5v-17.6c0-4.2-3.4-7.6-7.6-7.6c-4.2,0-7.6,3.4-7.6,7.6v35.8
		c0,0.5,0.1,1,0.1,1.5c0,0.2,0.1,0.4,0.2,0.7c0.1,0.2,0.1,0.5,0.2,0.7c0.1,0.3,0.3,0.5,0.4,0.8c0.1,0.2,0.2,0.3,0.3,0.5
		c0.6,0.8,1.3,1.5,2.1,2.1c0.2,0.1,0.4,0.2,0.5,0.3c0.2,0.2,0.5,0.3,0.8,0.4c0.2,0.1,0.5,0.2,0.8,0.2c0.3,0.1,0.4,0.1,0.7,0.2
		c0.5,0.1,1,0.1,1.5,0.1h35.8c4.2,0,7.6-3.4,7.6-7.6c0-4.2-3.4-7.6-7.6-7.6h-17.6l91.5-91.5V388c0,4.2,3.4,7.6,7.6,7.6
		s7.6-3.4,7.6-7.6v-35.8c0-0.5-0.1-1-0.1-1.5C-226.9,350.5-227,350.2-227.1,350L-227.1,350z"/>
</g>
</svg>
